<svg xmlns="http://www.w3.org/2000/svg" width="100" height="17.901" viewBox="0 0 100 17.901">
  <g id="Group_2295" data-name="Group 2295" transform="translate(-90 -287.835)">
    <g id="Group_2293" data-name="Group 2293" transform="translate(90 287.835)">
      <g id="Group_2286" data-name="Group 2286" transform="translate(24.389 0.366)">
        <g id="Group_1054" data-name="Group 1054" transform="translate(0 0)">
          <path id="Path_447" data-name="Path 447" d="M454.277,35.918l5.068,7.166h-2.4L452.9,37.556l-.175-.24-.2.24-2.075,2.25-.066.066v3.211H448.4V30.5h1.988v6.925l.437-.5,5.833-6.423h2.272L454.3,35.612l-.131.131Z" transform="translate(-383.734 -30.325)" fill="#fff"/>
          <rect id="Rectangle_704" data-name="Rectangle 704" width="2.01" height="12.584" transform="translate(55.577 0.175)" fill="#fff"/>
          <path id="Path_448" data-name="Path 448" d="M164.94,32.868a6.239,6.239,0,0,1,.874,3.277,6.448,6.448,0,0,1-.874,3.277,6.615,6.615,0,0,1-2.425,2.359,6.938,6.938,0,0,1-3.408.874,6.655,6.655,0,0,1-3.408-.874,6.367,6.367,0,0,1-3.3-5.636,6.448,6.448,0,0,1,.874-3.277,6.183,6.183,0,0,1,2.425-2.316,7.33,7.33,0,0,1,6.86,0A6.216,6.216,0,0,1,164.94,32.868Zm-1.18,3.277a4.95,4.95,0,0,0-.612-2.381,4.661,4.661,0,0,0-1.682-1.7,4.48,4.48,0,0,0-2.316-.612,4.93,4.93,0,0,0-2.359.612,4.614,4.614,0,0,0-1.726,1.7,4.792,4.792,0,0,0,0,4.763,4.839,4.839,0,0,0,1.726,1.726,4.636,4.636,0,0,0,2.338.634,4.5,4.5,0,0,0,2.316-.634,4.723,4.723,0,0,0,1.682-1.726A4.525,4.525,0,0,0,163.76,36.145Z" transform="translate(-152.4 -29.7)" fill="#fff"/>
          <path id="Path_449" data-name="Path 449" d="M245.446,41.314v1.77H237.8V30.5h2.01V41.314h5.636Z" transform="translate(-219.143 -30.325)" fill="#fff"/>
          <rect id="Rectangle_705" data-name="Rectangle 705" width="2.01" height="12.584" transform="translate(32.136 0.175)" fill="#fff"/>
          <path id="Path_450" data-name="Path 450" d="M344.559,30.5v1.7H340.5v10.88h-2.032V32.2H334.4V30.5Z" transform="translate(-294.639 -30.325)" fill="#fff"/>
        </g>
      </g>
      <g id="Group_2287" data-name="Group 2287">
        <path id="Path_444" data-name="Path 444" d="M14.975,0H.284A.275.275,0,0,0,0,.284V1.6a.283.283,0,0,0,.284.284H14.975a1.867,1.867,0,0,1,1.866,1.866V9.361a1.867,1.867,0,0,1-1.866,1.866H5.091l-3.21,2.687V1.2L1.427.781,1.2.706,1,.865c-.149,0-1,.568-1,.732V17.9l5.763-4.808h9.212a3.75,3.75,0,0,0,3.748-3.748v-5.6A3.759,3.759,0,0,0,14.975,0Z" fill="#fff"/>
      </g>
    </g>
    <g id="Group_2294" data-name="Group 2294" transform="translate(94.993 291.882)">
      <g id="Group_2289" data-name="Group 2289" transform="translate(0 0)">
        <path id="Path_1212" data-name="Path 1212" d="M25.231,51.77h8.678a.242.242,0,0,0,.231-.252V50.352a.242.242,0,0,0-.231-.252H25.231a.242.242,0,0,0-.231.252v1.166A.26.26,0,0,0,25.231,51.77Z" transform="translate(-25 -50.1)" fill="#fff"/>
      </g>
      <g id="Group_2290" data-name="Group 2290" transform="translate(0 3.339)">
        <path id="Path_1212-2" data-name="Path 1212" d="M25.231,51.77h8.678a.242.242,0,0,0,.231-.252V50.352a.242.242,0,0,0-.231-.252H25.231a.242.242,0,0,0-.231.252v1.166A.26.26,0,0,0,25.231,51.77Z" transform="translate(-25 -50.1)" fill="#fff"/>
      </g>
    </g>
  </g>
</svg>
