<svg width="36" height="36" viewBox="0 0 36 36" fill="none" xmlns="http://www.w3.org/2000/svg">
<g clip-path="url(#clip0)">
<path d="M11.3252 32.625C24.9068 32.625 32.3374 21.3701 32.3374 11.6128C32.3374 11.2964 32.3304 10.9729 32.3163 10.6565C33.7618 9.61119 35.0092 8.31638 36 6.83295C34.6538 7.4319 33.2245 7.82307 31.7609 7.9931C33.3019 7.06936 34.4558 5.61821 35.0086 3.90865C33.5588 4.76784 31.9734 5.37392 30.3202 5.70092C29.2063 4.51734 27.7335 3.73367 26.1295 3.47108C24.5256 3.20848 22.8798 3.48158 21.4466 4.24814C20.0134 5.01471 18.8727 6.23206 18.2008 7.71197C17.5288 9.19188 17.3631 10.8519 17.7293 12.4354C14.7937 12.2881 11.9219 11.5256 9.29997 10.1971C6.67804 8.86874 4.36454 7.00416 2.50945 4.72428C1.5666 6.34987 1.27808 8.27347 1.70255 10.1041C2.12701 11.9348 3.23259 13.5352 4.79461 14.58C3.62194 14.5427 2.47496 14.227 1.44844 13.6589V13.7503C1.44739 15.4562 2.03715 17.1099 3.11746 18.4302C4.19778 19.7504 5.70199 20.6558 7.37437 20.9925C6.28808 21.2897 5.14797 21.333 4.04227 21.119C4.51418 22.5862 5.43236 23.8693 6.66866 24.7895C7.90495 25.7097 9.39768 26.2209 10.9385 26.2519C8.32264 28.3067 5.09126 29.4212 1.76484 29.4159C1.17493 29.415 0.585599 29.3789 0 29.3076C3.37928 31.4756 7.3103 32.6271 11.3252 32.625Z" fill="white"/>
</g>
<defs>
<clipPath id="clip0">
<rect width="36" height="36" fill="white"/>
</clipPath>
</defs>
</svg>
